<?xml version="1.0" encoding="UTF-8"?>
<!DOCTYPE svg PUBLIC "-//W3C//DTD SVG 1.1//EN" "http://www.w3.org/Graphics/SVG/1.1/DTD/svg11.dtd">
<!-- Creator: CorelDRAW 2017 -->
<svg xmlns="http://www.w3.org/2000/svg" xml:space="preserve" width="233px" height="66px" version="1.1" style="shape-rendering:geometricPrecision; text-rendering:geometricPrecision; image-rendering:optimizeQuality; fill-rule:evenodd; clip-rule:evenodd"
viewBox="0 0 233000 66000"
 xmlns:xlink="http://www.w3.org/1999/xlink">
 <defs>
  <style type="text/css">
   <![CDATA[
    .str0 {stroke:#0081AF;stroke-width:3120;stroke-miterlimit:2.61313}
    .str1 {stroke:#0098DA;stroke-width:2080;stroke-miterlimit:2.61313}
    .fil4 {fill:#FEFEFE;fill-rule:nonzero}
    .fil0 {fill:#0081AF;fill-rule:nonzero}
    .fil3 {fill:#FEFEFE;fill-rule:nonzero}
    .fil1 {fill:url(#id0)}
    .fil2 {fill:url(#id1)}
   ]]>
  </style>
  <radialGradient id="id0" gradientUnits="userSpaceOnUse" gradientTransform="matrix(1.00001 -0 -0 0.981366 0 604)" cx="49080" cy="32430" r="167710" fx="49080" fy="32430">
   <stop offset="0" style="stop-opacity:1; stop-color:#FEFEFE"/>
   <stop offset="1" style="stop-opacity:1; stop-color:#FEFEFE"/>
  </radialGradient>
  <linearGradient id="id1" gradientUnits="userSpaceOnUse" x1="26320" y1="32870" x2="71450" y2="32870">
   <stop offset="0" style="stop-opacity:1; stop-color:#ED3237"/>
   <stop offset="1" style="stop-opacity:1; stop-color:#040404"/>
  </linearGradient>
 </defs>
 <g id="Layer_x0020_1">
  <metadata id="CorelCorpID_0Corel-Layer"/>
  <polygon class="fil0" points="90220,34280 91340,34280 92790,26160 91670,26160 92420,21910 99340,21910 98590,26160 97490,26160 96040,34280 97140,34280 96420,38530 89490,38530 "/>
  <path id="1" class="fil0" d="M101360 21910l4120 0 2500 5920c140,350 260,650 370,890 100,240 200,450 280,610 90,180 150,340 200,480 20,-250 50,-510 100,-780 40,-230 70,-480 110,-760 50,-270 90,-540 140,-790l1000 -5570 4570 0 -2920 16620 -4050 0 -2570 -6150c-130,-330 -250,-620 -360,-860 -110,-240 -200,-450 -270,-610 -80,-190 -150,-350 -190,-500 -40,280 -80,560 -130,850 -30,230 -70,490 -130,770 -40,280 -90,540 -120,780l-1000 5720 -4570 0 2920 -16620z"/>
  <path id="2" class="fil0" d="M117880 21910l6720 0c1460,0 2650,150 3550,450 900,300 1560,780 2000,1440 430,660 660,1510 680,2560 30,1050 -90,2320 -360,3820 -270,1500 -600,2780 -990,3840 -390,1050 -920,1920 -1580,2580 -670,670 -1510,1160 -2510,1460 -1010,310 -2250,470 -3720,470l-6720 0 2930 -16620zm4440 12790c640,0 1170,-60 1590,-200 430,-130 780,-360 1080,-700 290,-330 520,-790 710,-1370 180,-580 350,-1320 500,-2220 150,-900 230,-1640 260,-2210 30,-580 -50,-1030 -210,-1370 -170,-330 -440,-560 -810,-680 -380,-130 -880,-190 -1520,-190l-2000 0 -1590 8940 1990 0z"/>
  <path id="3" class="fil0" d="M138470 38780c-1290,0 -2340,-160 -3170,-470 -820,-300 -1440,-800 -1860,-1480 -410,-690 -640,-1570 -680,-2660 -50,-1090 80,-2420 360,-3990l1500 -8270 4670 0 -1470 8300c-150,880 -260,1620 -330,2230 -70,610 -60,1100 30,1480 80,370 250,640 510,800 260,150 630,230 1110,230 480,0 880,-80 1200,-230 320,-160 590,-420 810,-790 230,-370 420,-850 580,-1460 150,-610 310,-1360 460,-2260l1450 -8300 4690 0 -1520 8270c-280,1570 -620,2900 -1020,3990 -400,1090 -920,1970 -1570,2660 -640,680 -1420,1180 -2340,1480 -930,310 -2060,470 -3410,470z"/>
  <path id="4" class="fil0" d="M152780 38800c-450,0 -930,-30 -1450,-100 -510,-60 -1020,-160 -1510,-290 -490,-120 -940,-260 -1360,-410 -420,-150 -750,-310 -1000,-500l1600 -3750c250,150 540,300 860,440 330,140 660,270 1000,380 340,110 670,190 970,260 310,70 580,100 820,100 700,0 1260,-80 1680,-250 430,-170 680,-480 770,-930 40,-210 70,-410 60,-580 -10,-180 -60,-340 -170,-490 -90,-150 -250,-290 -460,-430 -200,-130 -490,-270 -860,-420l-1270 -520c-340,-150 -660,-340 -980,-550 -310,-220 -580,-500 -810,-840 -220,-340 -380,-760 -470,-1260 -100,-500 -70,-1100 60,-1800 180,-1020 490,-1860 910,-2540 420,-670 940,-1200 1540,-1580 600,-390 1270,-660 2010,-820 740,-150 1520,-230 2330,-230 490,0 970,30 1440,80 480,60 930,130 1350,220 420,80 810,180 1150,300 340,110 630,230 860,350l-1720 3840c-540,-330 -1060,-570 -1580,-710 -510,-140 -1000,-210 -1450,-210 -600,0 -1030,100 -1310,310 -270,210 -440,510 -510,890 -80,380 -50,670 100,850 150,180 470,370 950,570l1100 480c560,250 1060,510 1470,800 420,280 750,620 990,1010 240,390 390,850 460,1390 70,530 40,1170 -100,1920 -150,880 -440,1640 -890,2270 -440,640 -980,1160 -1630,1560 -650,410 -1400,710 -2240,900 -840,200 -1740,290 -2710,290z"/>
  <polygon id="5" class="fil0" points="165950,26160 162700,26160 163450,21910 174640,21910 173890,26160 170620,26160 168450,38530 163780,38530 "/>
  <path id="6" class="fil0" d="M176490 21910l6850 0c1050,0 1910,120 2600,350 680,230 1200,580 1560,1040 360,460 570,1020 650,1690 70,660 40,1430 -110,2290 -100,550 -250,1100 -440,1650 -190,550 -430,1040 -720,1480 -300,430 -640,790 -1040,1080 -400,290 -850,450 -1350,460 370,70 660,190 900,370 230,170 420,400 560,670 140,280 250,590 330,930 70,340 150,710 230,1110l780 3500 -5170 0c10,-90 20,-190 20,-330 0,-120 -10,-270 -20,-450 -20,-180 -60,-410 -100,-700l-450 -2000c-100,-450 -200,-820 -290,-1110 -90,-290 -200,-510 -330,-670 -120,-160 -270,-270 -450,-330 -170,-60 -390,-90 -660,-90l-570 0 -1000 5680 -4700 0 2920 -16620zm4380 7600c730,0 1270,-170 1630,-490 360,-320 610,-850 740,-1560 130,-720 70,-1230 -170,-1530 -260,-300 -750,-450 -1480,-450l-1050 0 -720 4030 1050 0z"/>
  <polygon id="7" class="fil0" points="188510,34280 189640,34280 191080,26160 189960,26160 190710,21910 197630,21910 196880,26160 195780,26160 194330,34280 195430,34280 194710,38530 187790,38530 "/>
  <polygon id="8" class="fil0" points="199780,21910 210220,21910 208550,25760 203700,25760 203250,28280 207950,28280 207300,31980 202600,31980 202130,34680 207800,34680 207130,38530 196860,38530 "/>
  <path id="9" class="fil0" d="M214300 38800c-450,0 -940,-30 -1450,-100 -520,-60 -1020,-160 -1520,-290 -490,-120 -940,-260 -1360,-410 -410,-150 -750,-310 -1000,-500l1600 -3750c250,150 540,300 870,440 320,140 650,270 990,380 350,110 670,190 980,260 310,70 580,100 810,100 700,0 1260,-80 1690,-250 420,-170 680,-480 760,-930 50,-210 70,-410 60,-580 -10,-180 -60,-340 -160,-490 -100,-150 -250,-290 -460,-430 -210,-130 -500,-270 -860,-420l-1280 -520c-330,-150 -660,-340 -970,-550 -320,-220 -590,-500 -810,-840 -230,-340 -390,-760 -480,-1260 -90,-500 -70,-1100 60,-1800 190,-1020 490,-1860 910,-2540 430,-670 940,-1200 1540,-1580 600,-390 1270,-660 2010,-820 740,-150 1520,-230 2340,-230 480,0 960,30 1440,80 470,60 920,130 1340,220 430,80 810,180 1150,300 340,110 630,230 870,350l-1730 3840c-530,-330 -1060,-570 -1570,-710 -520,-140 -1000,-210 -1450,-210 -600,0 -1040,100 -1310,310 -280,210 -450,510 -510,890 -90,380 -60,670 90,850 150,180 470,370 950,570l1100 480c570,250 1060,510 1480,800 410,280 740,620 990,1010 240,390 390,850 460,1390 60,530 30,1170 -100,1920 -150,880 -450,1640 -890,2270 -440,640 -990,1160 -1640,1560 -650,410 -1390,710 -2230,900 -840,200 -1750,290 -2710,290z"/>
  <ellipse class="fil1 str0" cx="49080" cy="32430" rx="28410" ry="27880"/>
  <path class="fil2 str1" d="M48880 55010c-12460,0 -22560,-9910 -22560,-22140 0,-12230 10100,-22150 22560,-22150 12470,0 22570,9920 22570,22150 0,12230 -10100,22140 -22570,22140z"/>
  <path class="fil0" d="M9860 16770l11400 0c1750,0 3190,200 4330,590 1130,380 2000,960 2600,1720 590,770 960,1700 1080,2810 120,1110 60,2390 -190,3830 -160,910 -410,1830 -730,2740 -310,920 -720,1740 -1200,2460 -490,720 -1060,1320 -1730,1810 -660,480 -1410,740 -2240,770 610,110 1100,310 1490,600 390,290 700,660 940,1120 240,460 410,970 540,1540 120,570 260,1190 400,1850l1280 5830 -8610 0c30,-140 50,-320 50,-550 0,-190 -20,-440 -50,-740 -20,-310 -80,-700 -160,-1170l-750 -3330c-170,-740 -330,-1360 -480,-1850 -150,-480 -330,-860 -540,-1120 -210,-260 -460,-440 -750,-540 -290,-100 -660,-150 -1100,-150l-960 0 -1660 9450 -7820 0 4860 -27670zm7280 12650c1220,0 2130,-270 2730,-810 600,-540 1000,-1410 1230,-2600 220,-1190 120,-2040 -300,-2540 -410,-500 -1230,-750 -2450,-750l-1750 0 -1200 6700 1740 0z"/>
  <path id="1" class="fil0" d="M35240 16770l7320 0 2540 7450c80,220 170,500 270,830 90,330 190,650 290,960 100,300 180,580 250,830 70,250 100,400 100,460 30,-30 120,-170 270,-420 160,-250 330,-540 540,-870 210,-340 430,-670 650,-1000 220,-330 400,-600 540,-790l5240 -7450 7240 0 -4870 27670 -7780 0 1960 -11320c30,-220 70,-480 140,-770 70,-290 130,-570 190,-850 60,-280 110,-510 170,-710 50,-190 80,-290 80,-290 -80,140 -240,340 -480,600 -230,270 -570,730 -1020,1400l-3780 5740 -1830 0 -1750 -5370c-310,-890 -530,-1470 -690,-1770 -150,-290 -240,-490 -270,-600 -20,30 -70,310 -120,850 -60,540 -140,1090 -250,1650l-2000 11440 -7820 0 4870 -27670z"/>
  <path id="2" class="fil0" d="M65770 16770l7820 0 -4870 27670 -7820 0 4870 -27670zm5700 13480l10360 -13480 7690 0 -9980 12730 6030 14940 -8530 0 -5570 -14190z"/>
  <path class="fil3" d="M10500 16210l11400 0c1750,0 3190,200 4330,590 1130,390 2000,960 2600,1720 590,770 950,1700 1080,2810 120,1110 60,2390 -190,3830 -170,910 -410,1830 -730,2740 -320,920 -720,1740 -1200,2460 -490,720 -1060,1320 -1730,1810 -660,480 -1410,740 -2250,770 610,110 1110,310 1500,600 390,290 700,670 940,1120 230,460 410,970 540,1540 120,570 260,1190 390,1850l1290 5830 -8610 0c30,-140 40,-320 40,-540 0,-200 -10,-450 -40,-750 -20,-310 -80,-700 -160,-1170l-750 -3320c-170,-750 -330,-1370 -480,-1860 -150,-480 -330,-860 -540,-1120 -210,-260 -460,-440 -750,-540 -290,-100 -660,-150 -1100,-150l-960 0 -1660 9450 -7820 0 4860 -27670zm7280 12650c1220,0 2130,-270 2730,-810 590,-540 1000,-1410 1220,-2600 230,-1190 130,-2040 -290,-2540 -410,-500 -1230,-750 -2450,-750l-1750 0 -1200 6700 1740 0zm18100 -12650l7320 0 2540 7450c80,220 170,500 270,830 90,340 190,650 290,960 100,300 180,580 250,830 70,250 100,400 100,460 30,-30 120,-170 270,-420 150,-250 330,-540 540,-870 210,-330 430,-670 650,-1000 220,-330 400,-600 540,-790l5240 -7450 7240 0 -4870 27670 -7780 0 1960 -11320c20,-220 70,-480 140,-770 70,-290 130,-570 190,-850 50,-280 110,-510 170,-710 50,-190 80,-290 80,-290 -80,140 -240,340 -480,600 -240,270 -580,730 -1020,1400l-3780 5740 -1830 0 -1750 -5370c-310,-880 -540,-1470 -690,-1770 -150,-290 -240,-490 -270,-600 -30,30 -70,310 -120,860 -60,530 -140,1080 -250,1640l-2000 11440 -7820 0 4870 -27670zm30530 0l7820 0 -4870 27670 -7820 0 4870 -27670zm5700 13480l10360 -13480 7690 0 -9980 12730 6030 14940 -8530 0 -5570 -14190z"/>
  <polygon class="fil4" points="90630,33710 91760,33710 93210,25590 92080,25590 92830,21340 99750,21340 99000,25590 97900,25590 96450,33710 97550,33710 96830,37960 89910,37960 "/>
  <path id="1" class="fil4" d="M101780 21340l4120 0 2500 5920c130,350 250,650 360,890 110,240 200,440 290,610 80,180 150,340 200,480 10,-250 50,-510 100,-780 30,-230 70,-490 110,-760 40,-270 90,-540 140,-790l1000 -5570 4570 0 -2920 16620 -4050 0 -2580 -6150c-130,-330 -250,-620 -360,-860 -110,-240 -190,-450 -260,-610 -80,-190 -150,-350 -200,-500 -30,280 -80,560 -130,850 -30,230 -70,490 -120,770 -50,280 -90,540 -120,770l-1000 5730 -4580 0 2930 -16620z"/>
  <path id="2" class="fil4" d="M118290 21340l6720 0c1470,0 2650,150 3550,450 900,300 1570,780 2000,1440 430,660 660,1510 690,2560 20,1050 -100,2320 -370,3820 -260,1500 -590,2780 -980,3840 -390,1050 -920,1920 -1590,2580 -670,670 -1500,1160 -2510,1460 -1010,310 -2250,470 -3710,470l-6720 0 2920 -16620zm4450 12790c630,0 1160,-60 1590,-200 420,-130 780,-360 1070,-700 290,-330 530,-790 710,-1370 180,-580 350,-1320 500,-2220 150,-900 240,-1640 260,-2210 30,-580 -40,-1030 -210,-1370 -160,-330 -440,-560 -810,-680 -370,-130 -880,-190 -1510,-190l-2000 0 -1600 8940 2000 0z"/>
  <path id="3" class="fil4" d="M138880 38210c-1280,0 -2340,-160 -3160,-470 -830,-300 -1450,-800 -1860,-1480 -420,-690 -650,-1570 -690,-2660 -40,-1090 80,-2420 360,-3990l1500 -8270 4670 0 -1470 8300c-150,880 -260,1620 -320,2230 -70,610 -60,1100 20,1480 80,370 250,640 510,800 260,150 630,230 1110,230 490,0 890,-80 1200,-230 320,-160 590,-420 820,-790 220,-370 410,-850 570,-1460 160,-610 310,-1360 460,-2260l1450 -8300 4700 0 -1520 8270c-290,1570 -630,2900 -1030,3990 -400,1090 -920,1970 -1560,2660 -640,680 -1420,1180 -2350,1480 -920,310 -2060,470 -3410,470z"/>
  <path id="4" class="fil4" d="M153200 38230c-450,0 -940,-30 -1450,-100 -520,-70 -1020,-160 -1520,-290 -490,-120 -940,-260 -1360,-410 -410,-150 -750,-310 -1000,-500l1600 -3750c250,150 540,300 870,440 320,140 650,270 990,380 350,100 670,190 980,260 310,70 580,100 810,100 700,0 1260,-90 1690,-250 420,-170 680,-480 760,-930 50,-210 70,-410 60,-580 -10,-180 -60,-340 -160,-490 -100,-150 -250,-290 -460,-430 -210,-130 -500,-270 -860,-420l-1280 -530c-330,-140 -660,-330 -970,-540 -320,-220 -590,-500 -810,-840 -230,-340 -390,-760 -480,-1260 -90,-500 -70,-1100 60,-1800 190,-1020 490,-1860 910,-2540 430,-670 940,-1200 1540,-1580 600,-390 1270,-660 2010,-820 740,-150 1520,-230 2340,-230 480,0 960,30 1440,80 470,60 920,130 1340,220 430,80 810,180 1150,300 340,110 630,230 870,350l-1730 3840c-530,-330 -1060,-570 -1570,-710 -520,-140 -1000,-210 -1450,-210 -600,0 -1040,100 -1310,310 -280,210 -450,500 -510,890 -90,380 -60,660 90,850 150,180 470,370 950,570l1100 480c570,250 1060,510 1480,800 410,280 740,620 990,1010 240,390 390,850 460,1390 60,530 30,1170 -100,1920 -150,880 -450,1640 -890,2270 -440,640 -990,1160 -1640,1560 -650,410 -1390,710 -2230,900 -840,200 -1750,290 -2710,290z"/>
  <polygon id="5" class="fil4" points="166360,25590 163120,25590 163860,21340 175060,21340 174310,25590 171040,25590 168860,37960 164190,37960 "/>
  <path id="6" class="fil4" d="M176910 21340l6840 0c1050,0 1920,120 2600,350 680,230 1210,580 1560,1040 360,460 580,1020 650,1680 80,670 40,1440 -110,2300 -100,550 -240,1100 -440,1650 -190,550 -430,1040 -720,1480 -290,430 -640,790 -1040,1080 -400,290 -850,450 -1350,460 370,70 670,190 900,370 240,170 420,400 570,670 140,280 240,580 320,930 70,340 150,710 240,1110l770 3500 -5170 0c20,-90 20,-200 20,-330 0,-120 0,-270 -20,-450 -20,-180 -50,-410 -100,-700l-450 -2000c-100,-450 -200,-820 -290,-1110 -90,-290 -200,-520 -320,-670 -130,-160 -280,-270 -450,-330 -180,-60 -400,-90 -660,-90l-580 0 -1000 5680 -4700 0 2930 -16620zm4370 7600c730,0 1280,-170 1640,-490 360,-330 600,-850 730,-1560 140,-720 80,-1230 -170,-1530 -250,-300 -740,-450 -1480,-450l-1040 0 -730 4030 1050 0z"/>
  <polygon id="7" class="fil4" points="188930,33710 190050,33710 191500,25590 190370,25590 191120,21340 198050,21340 197300,25590 196200,25590 194750,33710 195850,33710 195120,37960 188200,37960 "/>
  <polygon id="8" class="fil4" points="200190,21340 210640,21340 208960,25190 204120,25190 203670,27710 208360,27710 207710,31410 203020,31410 202540,34110 208210,34110 207540,37960 197270,37960 "/>
  <path id="9" class="fil4" d="M214710 38230c-450,0 -930,-30 -1450,-100 -510,-70 -1020,-160 -1510,-290 -490,-120 -950,-260 -1360,-410 -420,-150 -750,-310 -1000,-500l1600 -3750c250,150 540,300 860,440 320,140 660,270 1000,380 340,100 670,190 970,260 310,70 580,100 820,100 700,0 1260,-90 1680,-250 430,-170 680,-480 760,-930 50,-210 80,-410 70,-580 -10,-180 -70,-340 -170,-490 -100,-150 -250,-290 -460,-430 -210,-130 -490,-270 -860,-420l-1270 -530c-340,-140 -660,-330 -980,-540 -320,-220 -590,-500 -810,-840 -230,-340 -380,-760 -470,-1260 -100,-500 -80,-1100 60,-1800 180,-1020 480,-1860 910,-2540 420,-670 940,-1200 1540,-1580 590,-390 1270,-660 2010,-820 740,-150 1520,-230 2330,-230 490,0 970,30 1440,80 470,60 920,130 1350,220 420,80 810,180 1150,300 340,110 630,230 860,350l-1720 3840c-540,-330 -1060,-570 -1580,-710 -510,-140 -1000,-210 -1450,-210 -600,0 -1030,100 -1310,310 -270,210 -440,500 -510,890 -80,380 -50,660 100,850 150,180 470,370 950,570l1100 480c560,250 1060,510 1470,800 420,280 750,620 990,1010 240,390 390,850 460,1390 70,530 30,1170 -100,1920 -150,880 -440,1640 -890,2270 -440,640 -980,1160 -1630,1560 -650,410 -1400,710 -2240,900 -840,200 -1740,290 -2710,290z"/>
 </g>
</svg>
