<?xml version="1.0" encoding="UTF-8"?>
<!DOCTYPE svg PUBLIC "-//W3C//DTD SVG 1.1//EN" "http://www.w3.org/Graphics/SVG/1.1/DTD/svg11.dtd">
<!-- Creator: CorelDRAW 2017 -->
<svg xmlns="http://www.w3.org/2000/svg" xml:space="preserve" width="300px" height="88px" version="1.1" style="shape-rendering:geometricPrecision; text-rendering:geometricPrecision; image-rendering:optimizeQuality; fill-rule:evenodd; clip-rule:evenodd"
viewBox="0 0 3000000 880000"
 xmlns:xlink="http://www.w3.org/1999/xlink">
 <defs>
  <style type="text/css">
   <![CDATA[
    .fil6 {fill:none}
    .fil0 {fill:#11315A}
    .fil2 {fill:#13305A}
    .fil5 {fill:#9A0E05}
    .fil1 {fill:#9D0D02}
    .fil8 {fill:#9D0D02}
    .fil4 {fill:#9D0D05}
    .fil3 {fill:#FCFEFD}
    .fil7 {fill:#11315A;fill-rule:nonzero}
   ]]>
  </style>
 </defs>
 <g id="Layer_x0020_1">
  <metadata id="CorelCorpID_0Corel-Layer"/>
  <path class="fil0" d="M555800 812800c-800,-2300 300,-62800 900,-68900l13100 300c1100,3400 -500,60600 -900,68800l-13100 -200zm86400 -70800l300 13600 -18600 900 2200 55100 -13600 300 -2400 -54900 -19000 800c-100,-3600 -1000,-10700 -100,-13700l51200 -2100zm-158400 -2700c3900,-600 43500,3300 51600,3700l-1000 13700 -18900 -1400 -4300 54600c-3300,600 -9700,-400 -13400,-700 -600,-3400 1400,-22500 1800,-27500 800,-9000 1700,-18400 2200,-27500l-19000 -1500 1000 -13400zm-58300 40800c2400,3000 6500,8000 12400,9000 7100,1200 13900,-4200 9200,-9400 -6900,-7700 -18400,-9300 -23400,-19100 -7700,-14900 7500,-34700 30000,-25300 5600,2400 9100,5500 12600,8400 -1700,3200 -6600,6200 -9300,9600 -4500,-1900 -7600,-7700 -16000,-6500 -5200,700 -8500,6600 -600,11800 7300,4700 20600,9800 22000,21600 2800,24800 -34200,32100 -48400,7700l5600 -4100c2000,-1400 3700,-2800 5900,-3700zm242600 5500c-1400,-6800 -2000,-15300 -2800,-22300 -700,-5800 -2800,-17500 -2500,-22700 2000,-700 11300,-1700 13400,-1400 700,10500 2600,22200 3900,32900 700,5800 700,10300 3500,14800 5700,8900 18500,7600 22500,-2400 3300,-8600 -5100,-40100 -3800,-48900l12900 -1400c1400,2700 5500,39100 5700,44800 1400,33200 -46700,37500 -52800,6600zm117800 -64500l2700 13200 -18500 3700 10800 54200c-3300,500 -11300,2700 -13400,2100l-11000 -53500 -18600 3500 -2500 -13200 50500 -10000zm-438400 -8400c5500,700 5900,1000 7200,3500l25300 46400 9300 -39200 13300 3200 -16200 67500c-1300,-200 -3100,-500 -4300,-900 -2200,-600 -1800,-500 -2800,-2400 -6000,-10400 -12100,-23000 -18100,-33300 -2000,-3500 -5000,-10300 -7400,-13100l-9300 39000 -13200 -3200 16200 -67500zm501700 -8600l3600 13000 -29400 8000 3700 13500 21600 -5700 3600 13100c-3000,700 -19200,5000 -21300,6200l3600 13100 29600 -8000 3400 13000 -42500 11700 -18400 -66200 42500 -11700zm-538900 -2600l12700 3900 -20900 65300c-1800,400 -10800,-2500 -12900,-3900l21100 -65300zm241200 148900l53300 0c6400,-2200 191200,3600 386600,-74000 -1400,-11900 -4300,-25600 -6400,-37700 -2200,-12700 -4300,-25000 -6300,-37800 -1600,-9300 -11400,-72400 -13000,-75300 -4400,1300 -9700,3800 -14300,5600 -4800,1900 -9500,3500 -14200,5300 -9700,3600 -19400,6700 -29400,10000 -20000,6500 -40400,12100 -61300,17500 -21100,5400 -43000,9900 -64700,14000 -8300,1500 -64300,11300 -68100,9700 -4100,2100 -17900,2000 -23600,3100 -3100,700 -8600,900 -12000,1200 -2600,300 -10000,1200 -11600,400l-2500 700c-900,200 -2000,200 -2900,200 -31000,1900 -56200,3200 -88200,2800 -12100,-100 -79900,-2100 -92200,-4600 -8400,-500 -16300,-1500 -24600,-2300 -2100,-200 -3800,-400 -5800,-800l-14600 -1800c-2400,-600 -1200,500 -2100,-1200 -3700,1800 -56500,-8300 -64500,-9900 -20800,-4000 -41600,-8600 -61700,-14000 -30900,-8200 -57200,-15900 -87000,-26400 -4200,-1500 -25100,-9600 -27500,-9700l-25400 150800c13400,5800 27800,10700 41700,15600 14300,5000 28600,9500 43500,13800 79000,23000 161200,36700 244100,42000 7000,500 52700,2000 54700,2800z"/>
  <path class="fil1" d="M666500 692400c1600,800 9000,-100 11600,-400 3400,-300 8900,-500 12000,-1200 5700,-1100 19500,-1000 23600,-3100 -3200,-5300 -14300,-14300 -20700,-18400 -11400,-7100 -16000,-6800 -28000,-10300 5800,-1400 11800,-3400 17500,-5200 4800,-1500 12800,-5100 17200,-5800 5000,10400 21400,20600 34100,23700 8400,2000 17800,2500 26900,1500 6200,-600 19200,-2700 23400,-5600 -600,-1100 -4900,-5500 -6100,-6500 -6700,-5700 -13300,-10600 -21800,-14600 -17200,-8200 -25100,-6100 -41000,-5200 3100,-1800 7300,-3600 10800,-5400l20400 -11200c2700,-1600 7200,-4900 9800,-5900 5000,4900 9200,9300 15200,13100 5400,3500 13200,6100 20600,7200 17600,2600 31400,-1900 47100,-7200 -1600,-3200 -10400,-9200 -14100,-11600 -14300,-9300 -32800,-14100 -50200,-10200 -3500,800 -6700,2200 -9900,2900 2100,-2500 12900,-9900 16400,-12700 2800,-2200 5100,-4100 7700,-6500 2200,-2100 4900,-4900 7600,-6500 2000,1100 4200,4000 6600,6000 13500,11200 32500,13600 49800,10400 7500,-1400 12700,-3800 18900,-5700 -1700,-3100 -9800,-8900 -12800,-10800 -4500,-2800 -9500,-5400 -15100,-7500 -15600,-5700 -24100,-3600 -39000,-200l16900 -18500c1700,-1800 3600,-4200 5200,-6100 1800,800 4600,3000 7000,4300 14000,7700 31900,6800 46500,1300 4600,-1700 9400,-3200 13400,-6100l1200 -1100c0,-200 200,-300 200,-400 -9800,-5100 -12300,-8900 -25500,-12100 -15000,-3700 -19000,-1400 -32600,1300 1000,-2100 2900,-4200 4200,-6100l11800 -17500c2300,600 5800,2800 8700,3900 21300,7600 47100,-2900 61500,-17400 -13200,-8000 -36700,-9600 -51800,-2900 -7200,3200 -8900,5800 -13100,8000 4100,-9800 14200,-23700 17400,-34100 12300,1600 19100,2500 30700,-4400 5700,-3400 16900,-12200 19500,-18200 -8100,-2000 -17200,-2100 -25300,-300 -9900,2300 -11400,5300 -18700,9300 1700,-6800 5000,-13400 7200,-20300 2200,-6600 1400,-4500 5100,-8500 7100,-7800 11300,-17100 12100,-28600 400,-6200 -300,-19400 -3400,-23600 -2900,1800 -8300,9100 -10600,13000 -3000,5000 -5600,10300 -7000,16700 -1500,7200 -1400,14800 700,21300 1600,4900 1300,4200 -300,9000 -900,2700 -1600,6400 -3400,8500 0,-9900 -2000,-18600 -6100,-27100 -600,-1300 -1300,-2400 -2000,-3800l-2300 -2900c-3100,3700 -7000,15300 -8200,21200 -1600,8900 -1300,17900 1700,25700 1400,3800 3100,6600 5300,9500 1300,1800 2100,2100 800,4600l-12000 23300c400,-4800 2200,-9400 2300,-15500 400,-13000 -3400,-25600 -9400,-36700 -1000,-1800 -2000,-4100 -3600,-5200 -5800,8100 -11300,25700 -11800,37700 -300,7600 700,14900 3000,21400 1200,3200 2600,5900 4100,8500 1500,2800 3600,4800 4900,7300 -1800,3900 -13100,20200 -15400,22200 2400,-14000 4700,-17500 1400,-33000 -1600,-7200 -7100,-22100 -11400,-26300 -2000,1800 -6500,12600 -7700,16300 -2000,6100 -3700,12900 -4200,20100 -400,7300 400,14800 2500,21200 2400,7400 5400,10000 8300,15800 -1300,2700 -18700,21300 -20900,22600 5400,-14900 8300,-21500 5700,-38800 -1100,-7200 -7600,-28200 -13100,-32500 -5800,6400 -12000,28000 -12700,39200 -1700,27000 10500,35100 11800,40600 -5600,4000 -10900,9400 -16300,13600 -5600,4300 -10900,8500 -16800,12300 7300,-10100 13700,-23000 14200,-39700 300,-13800 -2700,-29100 -9300,-41300l-1400 -1700c-3500,3900 -8200,12600 -10700,18100 -6800,14600 -10400,32000 -6700,48200 2500,10900 6400,13800 8500,20300 -3700,2000 -8100,5100 -12000,7400 -4000,2400 -8000,4600 -12400,7000 -6900,3800 -19100,10000 -26500,12300 3900,-5600 7200,-7300 12100,-15600 3300,-5600 6100,-12900 7600,-20300 3200,-16100 900,-34200 -4000,-48500 -3600,2500 -10600,11900 -13700,16700 -12900,20000 -19700,48000 -8000,70000 -5500,4200 -49300,16000 -58700,16700 700,-700 1200,-1100 2400,-1900l7000 -5100c2400,-2000 6300,-5700 8200,-8000 10400,-13000 16600,-28300 17900,-46000 400,-6200 200,-25000 -2300,-29300 -3200,1300 -14600,13000 -17000,16100 -4900,6200 -9100,11600 -13200,19900 -3700,7700 -6400,16100 -7300,25700 -1100,12500 1200,17900 3600,28600 -800,500 800,-100 -1200,600 -10700,3600 -55500,5700 -64900,6000l100 3500c11600,200 23800,-700 35300,-1700 10300,-900 25300,-4000 32700,-4500 2700,9100 17500,24500 25700,27700z"/>
  <path class="fil1" d="M433600 685400c900,1700 -300,600 2100,1200l14600 1800c2000,400 3700,600 5800,800 8300,800 16200,1800 24600,2300 14900,-7600 22200,-24400 24400,-26800 27700,3600 37700,6000 67400,6300l0 -3600c-38500,-600 -75500,-5600 -111300,-17900 -4400,-1500 -9900,-3900 -14000,-4900 2000,-9100 5300,-10600 5900,-24200 900,-20300 -7900,-39800 -20200,-54900 -1500,-1700 -1900,-2600 -3400,-4000 -1400,-1500 -2500,-2700 -3700,-4100 -2800,3300 -4900,16900 -5500,22400 -900,8600 -500,17900 1100,26000 1500,7600 4200,14400 7600,20300 4700,8300 8600,10500 12100,15700 -13000,-3800 -27400,-12600 -38900,-19300 -4100,-2400 -8300,-5500 -12100,-7400 3400,-7900 6300,-10400 8600,-20300 3700,-16100 100,-33700 -6700,-48200 -2300,-4800 -7700,-15200 -10800,-18100 -3100,2400 -6700,15300 -7600,18600 -2100,7500 -3100,15600 -3000,23900 300,11800 3200,21700 8500,31400 1900,3400 3800,5500 5400,8400 -8500,-3700 -27500,-22200 -32800,-25500 400,-1500 6600,-10600 8900,-17000 4800,-13900 3200,-31300 -1500,-45100 -1500,-4300 -5900,-15600 -8400,-17700 -5600,5200 -11800,24600 -13000,32500 -1100,6800 -1100,14500 0,21300 1300,7700 3600,11200 5600,17500 -2400,-1500 -19100,-19500 -20800,-22600 3200,-5200 6000,-8600 8300,-15800 4200,-12900 2600,-28600 -1800,-41300 -1300,-4100 -5400,-14600 -7700,-16300 -8400,9800 -13500,30300 -12700,44000 400,6300 2800,12800 3000,15900l-15600 -22800c3200,-5600 6500,-8900 9000,-15800 4600,-12900 3400,-29000 -1000,-42000 -1500,-4600 -5200,-14000 -7900,-17200 -3900,3200 -9900,19200 -11300,25900 -2400,11100 -2200,22000 1000,32200l-12400 -24000c-1100,-2400 -400,-2600 900,-4400 2300,-3000 3800,-5700 5300,-9500 3000,-7800 3400,-16700 1700,-25500 -1100,-5700 -5100,-18200 -8300,-21600 -2800,2800 -5900,9800 -7400,14700 -2200,6800 -2700,11400 -3000,19100 -1800,-2200 -2400,-5700 -3300,-8500 -1800,-5100 -1800,-4100 -200,-9200 4900,-15500 -1700,-32400 -11200,-44500 -1600,-2100 -3600,-5100 -5900,-6200 -2800,4300 -3700,17600 -3300,23600 500,8100 3000,15400 6400,21100 1900,3100 3500,5000 5700,7400 3700,4000 2900,2000 5100,8600 1100,3500 2200,6800 3400,10200 1100,2800 3100,7000 3800,10100 -7700,-4200 -8400,-6900 -18800,-9300 -7500,-1700 -18100,-1900 -25300,400 3800,6200 12400,13800 19500,18000 12000,7100 18200,6100 30700,4500 5000,12700 13600,24600 17500,34000 -6400,-3100 -11700,-10700 -30000,-12000 -10700,-800 -27700,2100 -35000,7000 10000,8100 17500,13900 30600,17900 9500,2800 21200,3100 30900,-500 3100,-1100 6300,-3200 8700,-3900 2600,3200 5300,8000 7800,11600 2600,4000 6200,7700 8300,12000 -13300,-2500 -17100,-5200 -32600,-1300 -11800,3000 -17300,7300 -25600,12200l600 600c1800,1700 4200,2500 6400,3600 16300,8100 37500,11000 54000,2300 2500,-1400 5200,-3700 7400,-4500 3600,3100 11300,13500 16600,18300 2000,1900 4200,3800 5600,6200 -15400,-3400 -23200,-5400 -39200,300 -5900,2100 -24300,11600 -27900,18100 21700,8200 49100,12300 68700,-4600 2000,-1700 4900,-4900 6600,-6100 1700,900 29000,25500 33300,26600 -13800,-5400 -27600,-7300 -43500,-2000 -10700,3500 -25200,11200 -32200,19600 2400,2600 16100,6000 20800,6900 20600,4000 39100,700 55000,-12400 3100,-2500 4200,-4600 7100,-7000 2800,800 15800,9400 19800,11600 6200,3300 15900,7500 21100,10800 -17600,-1300 -24000,-2300 -41000,5300 -8500,3800 -24900,15600 -27800,21000 4100,2900 17200,5000 23200,5600 16300,1700 34200,-1100 47000,-10500 4300,-3100 12100,-10100 14200,-14700l34400 11200c-14800,2700 -26600,7700 -37200,17000 -1900,1800 -8100,7100 -9200,9200z"/>
  <path class="fil2" d="M562800 330000c1800,1300 3200,4800 4900,7200l1200 1800c400,700 600,1300 1100,2100 1000,1700 2000,2200 2300,4200 1600,1600 10900,17600 12800,20700 2100,3600 3700,8800 9600,6800 2400,-700 5600,-7500 7100,-9800l19000 -31400c1500,-2500 5200,-9300 6700,-10600l0 10200c600,2100 600,22600 -100,24400l100 38900 37800 0 0 -144300c-10000,0 -20000,0 -29900,0 -9500,0 -6400,-1700 -16000,13900l-16900 28200c-1200,1900 -4500,7900 -6000,9300 -2300,-3000 -4600,-7500 -6600,-10800l-16300 -27200c-1600,-2700 -2100,-2900 -5800,-2800l21200 35600c2400,4100 6000,8500 4700,10700l-1400 1400c-2200,-2700 -21700,-36200 -24500,-40700 -2200,-3500 -4000,-6700 -6100,-10200 -4000,-6600 -3200,-7400 -8800,-7400 -11000,0 -22000,100 -33000,0l-200 144400 37800 -100 0 -73400c1600,1500 4800,6700 5300,8900z"/>
  <path class="fil0" d="M449000 494100l116900 44500c18400,6700 11300,7700 33600,-1400l49800 -19500c11100,-4300 22100,-8700 33200,-13000 8200,-3200 26500,-10800 33400,-13000 -2100,-1600 -28700,-11200 -33400,-13000l-83800 -31800c-3500,-1300 -13600,-6100 -16700,-5000 -10800,3900 -22300,8800 -33200,13100l-99800 39100z"/>
  <path class="fil0" d="M423100 313200c-2800,200 -7400,700 -9400,-400 -500,1400 -1300,900 -5300,800l100 -31400c5400,0 10800,0 16300,0 3400,0 11000,-700 13600,2200 2400,1100 3100,900 4800,3000 1200,1500 2300,2700 2700,5300 4400,4500 -1300,14600 -3800,16700 -1900,1600 -4800,3300 -8100,3900 -3000,600 -8600,1000 -10900,-100zm11800 38900c1300,2100 3900,6000 4200,8300 2000,900 18900,32200 19700,34100l43400 0 -29300 -51800c-1300,-2300 -3500,-5500 -4300,-8200 4500,-1800 10300,-9100 13300,-14200 3500,-5800 5700,-13800 5500,-21900 -300,-15100 -7000,-28200 -18300,-36900 -15700,-12000 -20300,-11400 -43800,-11400 -18500,0 -37000,100 -55500,0l100 144500 39800 -100 -100 -44600 24400 0 900 2200z"/>
  <path class="fil0" d="M737200 354000c1400,600 7000,7400 8500,9500 600,800 500,600 1000,1600l24100 29400 46900 0 -42500 -56800c-2500,-3300 -4700,-6300 -7200,-9600 -1500,-2000 -6400,-7900 -7100,-9900l7300 -8200c1200,-1300 2400,-2700 3700,-4200l14500 -17000c1200,-1400 2600,-3000 3700,-4300l18300 -21000c1900,-2100 10100,-11100 10900,-13300l-37900 0c-12300,0 -9400,-1100 -14200,4700l-20100 24800c-700,500 -8700,10300 -9800,11800 -2200,2600 -3500,4500 -5700,6800l-200 -48100 -39500 0 -100 144100 39600 300 0 -48100c900,600 300,100 1000,800 1200,1200 4500,5200 4800,6700z"/>
  <path class="fil0" d="M1111900 679000c-19300,-5100 -58000,-18700 -78400,-25600 -29100,-9800 -28700,-7800 -22300,-22700 7600,-17600 18400,-44300 24900,-61800 2900,-8000 7200,-17300 9500,-25400 -5300,1300 -12300,4000 -17500,5800 -16200,5600 -36200,11500 -52800,16500 -23500,7300 -47800,13400 -71700,20300 200,100 300,200 400,300l40600 15700c7000,2600 13600,5000 20700,7600 3100,1200 8100,2000 9700,4500 1700,2600 9900,54300 10900,60000 1300,7200 7000,45000 8700,48300 9300,-1500 52500,-16200 61300,-19300 14300,-5100 28800,-11000 42500,-17300 2400,-1100 11700,-5000 13500,-6900z"/>
  <path class="fil0" d="M47600 679000c1400,1500 4600,2800 6500,3700 27400,12800 50100,21300 79200,30600 5500,1700 27300,8600 31500,9100 800,-8300 6400,-38300 8300,-48600 2800,-16200 5500,-32200 8300,-48500 2400,-13900 300,-11100 12700,-15600l61400 -23300c100,-100 200,-200 300,-300 -11400,-3500 -24300,-6600 -35900,-9800 -12000,-3300 -24000,-6800 -35800,-10500 -11700,-3600 -23700,-7000 -35300,-10900l-35000 -11300c1900,7300 24800,64000 29300,74800 1800,4200 3300,8100 5100,12300 1400,3300 5100,9600 2600,13000 -2000,2600 -43700,16300 -50700,18500 -17400,5600 -35100,11900 -52500,16800z"/>
  <path class="fil0" d="M499900 561500c4100,3300 29100,9400 36500,10800 13900,2700 28100,4300 42800,4400 20700,200 42700,-2800 62300,-8500 6200,-1900 12200,-4500 18000,-6200l100 -45800c-11000,3000 -75700,31100 -79400,30200 -2600,-700 -7200,-2800 -9900,-3800l-30100 -11400c-6700,-2600 -13200,-4900 -19800,-7500 -5000,-1900 -15700,-6600 -20500,-7600l0 45400z"/>
  <path class="fil3" d="M331300 780200l13200 3200 9300 -39000c2400,2800 5400,9600 7400,13100 6000,10300 12100,22900 18100,33300 1000,1900 600,1800 2800,2400 1200,400 3000,700 4300,900l16200 -67500 -13300 -3200 -9300 39200 -25300 -46400c-1300,-2500 -1700,-2800 -7200,-3500l-16200 67500z"/>
  <path class="fil1" d="M472600 570600c-2500,4700 -2700,23400 -2300,29600 1500,19100 7100,32000 18100,45800 2900,3600 13400,13000 17800,14500 3600,-5700 4700,-20900 3900,-28900 -1700,-17000 -10300,-33400 -20800,-45300 -3100,-3600 -12800,-14300 -16700,-15700z"/>
  <path class="fil3" d="M702300 735600c-1300,8800 7100,40300 3800,48900 -4000,10000 -16800,11300 -22500,2400 -2800,-4500 -2800,-9000 -3500,-14800 -1300,-10700 -3200,-22400 -3900,-32900 -2100,-300 -11400,700 -13400,1400 -300,5200 1800,16900 2500,22700 800,7000 1400,15500 2800,22300 6100,30900 54200,26600 52800,-6600 -200,-5700 -4300,-42100 -5700,-44800l-12900 1400z"/>
  <path class="fil3" d="M806700 715800l18400 66200 42500 -11700 -3400 -13000 -29600 8000 -3600 -13100c2100,-1200 18300,-5500 21300,-6200l-3600 -13100 -21600 5700 -3700 -13500 29400 -8000 -3600 -13000 -42500 11700z"/>
  <path class="fil3" d="M425500 780100c-2200,900 -3900,2300 -5900,3700l-5600 4100c14200,24400 51200,17100 48400,-7700 -1400,-11800 -14700,-16900 -22000,-21600 -7900,-5200 -4600,-11100 600,-11800 8400,-1200 11500,4600 16000,6500 2700,-3400 7600,-6400 9300,-9600 -3500,-2900 -7000,-6000 -12600,-8400 -22500,-9400 -37700,10400 -30000,25300 5000,9800 16500,11400 23400,19100 4700,5200 -2100,10600 -9200,9400 -5900,-1000 -10000,-6000 -12400,-9000z"/>
  <path class="fil4" d="M766800 321000c7100,8500 21000,28100 28400,37700 4800,6300 9400,12500 14200,18900l14000 18900 -43800 100c1700,3000 4600,5700 6400,8400l46800 100c-1100,-2500 -11600,-16000 -14000,-19100 -3100,-4100 -41700,-55100 -42500,-57100 2400,-2700 4400,-5400 7200,-8400 2500,-2800 4800,-5500 7300,-8500 2400,-2900 4900,-5600 7200,-8500 5000,-6000 35000,-39700 36700,-42700l-12900 -100c-5500,0 -3700,800 -8400,5700 -2400,2400 -4500,5400 -6800,7900 -5700,5900 -13900,16500 -20000,23100l-13400 15400c-1300,1500 -5700,6500 -6400,8200z"/>
  <polygon class="fil1" points="670600,396600 642300,396600 642200,405000 680000,405100 680000,260700 670700,260700 "/>
  <path class="fil3" d="M482800 752700l19000 1500c-500,9100 -1400,18500 -2200,27500 -400,5000 -2400,24100 -1800,27500 3700,300 10100,1300 13400,700l4300 -54600 18900 1400 1000 -13700c-8100,-400 -47700,-4300 -51600,-3700l-1000 13400z"/>
  <path class="fil3" d="M591000 744100c-900,3000 0,10100 100,13700l19000 -800 2400 54900 13600 -300 -2200 -55100 18600 -900 -300 -13600 -51200 2100z"/>
  <path class="fil3" d="M735400 731100l2500 13200 18600 -3500 11000 53500c2100,600 10100,-1600 13400,-2100l-10800 -54200 18500 -3700 -2700 -13200 -50500 10000z"/>
  <path class="fil0" d="M898000 637800c6200,-800 53200,-17400 56700,-20100l-62500 -23700 5800 43800z"/>
  <path class="fil1" d="M473900 336600c1000,4500 30800,53300 33400,60000l-38200 100 4500 8300 43200 0c-2200,-6100 -32500,-55800 -33300,-59900 11400,-6600 19500,-22900 18500,-38300 -400,-7800 -2900,-16200 -6500,-21900 -2800,-4300 -9700,-12100 -13700,-14200 6800,7400 12400,22000 10500,36500 -1700,12600 -10700,25600 -18400,29400z"/>
  <path class="fil0" d="M267200 594000c-4400,1100 -11100,4300 -15600,6000l-46400 17800c14500,6200 40400,14000 56200,19200l5800 -43000z"/>
  <path class="fil3" d="M555800 812800l13100 200c400,-8200 2000,-65400 900,-68800l-13100 -300c-600,6100 -1700,66600 -900,68900z"/>
  <path class="fil3" d="M289200 766800c2100,1400 11100,4300 12900,3900l20900 -65300 -12700 -3900 -21100 65300z"/>
  <path class="fil1" d="M572300 345300c-300,-2000 -1300,-2500 -2300,-4200 -500,-800 -700,-1400 -1100,-2100l-1200 -1800c-1700,-2400 -3100,-5900 -4900,-7200l0 66500 -28300 100 -100 8500 37800 -100 100 -59700z"/>
  <path class="fil1" d="M439100 360400c-300,-2300 -2900,-6200 -4200,-8300l-20100 -100 200 44600 -30400 0 0 8200 39800 300 -100 -44700 14800 0z"/>
  <path class="fil1" d="M746700 365100c-500,-1000 -400,-800 -1000,-1600 -1500,-2100 -7100,-8900 -8500,-9500l0 42600 -30200 0 0 8200 39700 300 0 -40000z"/>
  <path class="fil5" d="M627400 355600c700,-1800 700,-22300 100,-24400l-25700 42400 -2700 2200c3000,3100 2900,7700 7900,7800 4700,100 6200,-4600 8300,-8100 2000,-3300 3900,-6600 5900,-9800 1900,-3100 4100,-7200 6200,-10100z"/>
  <path class="fil4" d="M413700 312800c2000,1100 6600,600 9400,400l100 -20500 22700 0c-400,-2600 -1500,-3800 -2700,-5300 -1700,-2100 -2400,-1900 -4800,-3000l-24700 -200 0 28600z"/>
  <path class="fil1" d="M268200 325000c-14100,4900 -6700,25200 6900,20700 13400,-4500 6500,-25400 -6900,-20700z"/>
  <path class="fil1" d="M898400 325000c-13800,4700 -7100,24800 6500,20800 13700,-4000 7400,-25500 -6500,-20800z"/>
  <path class="fil4" d="M737300 291500c1100,-1500 9100,-11300 9800,-11800 -100,-200 -100,-500 -100,-400l-500 -18500 -9100 -100 -100 30800z"/>
  <ellipse class="fil6" transform="matrix(0.0703102 0.00575 -0.00412403 0.0894074 592042 344029)" rx="4812500" ry="3593800"/>
  <path class="fil7" d="M314300 256700l-44900 -16300 8600 -23600 7600 2700 -6300 17200 10000 3600 5800 -15900 7600 2800 -5800 15900 12200 4400 6500 -17700 7600 2700 -8900 24200zm-31200 -52200l5900 -11000c1300,-2500 2600,-4300 3900,-5300 1600,-1400 3700,-2200 6200,-2400 2600,-300 5400,0 8400,800 3000,800 6500,2200 10500,4400 3500,1800 6300,3700 8500,5700 2600,2400 4600,4800 5700,7200 900,1800 1300,3800 1100,6000 -100,1700 -800,3600 -2000,5800l-6000 11400 -42200 -22600zm10400 -2300l27900 15000 2400 -4500c900,-1700 1400,-3000 1500,-3900 200,-1100 100,-2200 -400,-3300 -500,-1100 -1600,-2400 -3200,-3800 -1700,-1400 -4200,-3000 -7400,-4700 -3300,-1800 -5900,-2900 -7900,-3400 -1900,-600 -3600,-700 -5000,-500 -1300,200 -2500,800 -3400,1700 -700,700 -1800,2300 -3100,4700l-1400 2700zm8400 -31600l3800 -5700 21600 14300c3400,2300 5700,3700 6800,4300 1800,800 3500,1100 5000,800 1700,-200 3000,-1100 4000,-2700 1100,-1600 1400,-3100 1000,-4600 -400,-1400 -1200,-2600 -2400,-3700 -1300,-1100 -3500,-2700 -6600,-4800l-22100 -14600 3800 -5800 21000 14000c4700,3200 8000,5600 9800,7200 1800,1600 3000,3300 3900,5000 800,1700 1100,3600 1000,5500 -100,1900 -900,4000 -2400,6200 -1800,2700 -3600,4400 -5300,5200 -1900,800 -3700,1200 -5700,1100 -1900,-200 -3700,-600 -5500,-1400 -2500,-1100 -6000,-3200 -10400,-6200l-21300 -14100zm61600 -29200l6600 -2900c3200,4400 4900,8300 5200,11700 200,3500 -900,6600 -3300,9300 -3100,3300 -7200,4500 -12400,3700 -5100,-800 -10500,-3800 -16000,-8900 -5800,-5400 -9400,-10700 -10600,-15900 -1300,-5100 -300,-9400 2900,-12900 2800,-3000 6400,-4300 10700,-3900 2600,300 5500,1400 8800,3500l-2900 6500c-2100,-1400 -4100,-2100 -6000,-2200 -1900,0 -3500,700 -4700,2000 -1700,1800 -2200,4200 -1400,7100 800,2900 3300,6200 7500,10100 4400,4100 8100,6500 11000,7100 3000,600 5300,0 6900,-1800 1300,-1400 1800,-3100 1400,-5100 -300,-2100 -1500,-4600 -3700,-7400zm45200 -16500l-5600 4800 -9300 -6300 -10300 8800 4900 10100 -5500 4700 -21100 -44900 5600 -4700 41300 27500zm-21800 -6300l-15100 -10400 8000 16500 7100 -6100zm28500 2200l-21200 -33600 -8500 5300 -4400 -6800 22800 -14400 4300 6900 -8400 5300 21200 33600 -5800 3700zm17900 -11000l-23500 -41600 6000 -3400 23500 41600 -6000 3400zm500 -27600c-2000,-4400 -3300,-8300 -3700,-11800 -400,-2500 -300,-4900 100,-7300 400,-2300 1100,-4200 2200,-5700 1400,-2000 3300,-3600 5800,-4800 4600,-2100 9100,-1800 13700,1000 4500,2700 8500,7600 11700,14700 3200,7000 4400,13100 3500,18300 -800,5300 -3500,8900 -8100,11000 -4500,2100 -9100,1800 -13600,-900 -4600,-2700 -8400,-7500 -11600,-14500zm6300 -3200c2200,4900 4800,8300 7600,10100 2700,1800 5400,2100 7900,1000 2400,-1200 3900,-3400 4300,-6600 500,-3300 -500,-7400 -2800,-12500 -2300,-5000 -4800,-8300 -7500,-10100 -2600,-1700 -5300,-2000 -7800,-800 -2600,1200 -4100,3400 -4500,6600 -500,3200 500,7300 2800,12300zm38700 9400l-13700 -45800 6400 -1900 22500 26700 -9200 -30700 6100 -1800 13700 45800 -6600 2000 -22100 -26200 8900 30100 -6000 1800zm50400 -12500l-14900 -46200 7000 -1000 9800 31800 1300 -33400 8100 -1200 10700 32200 300 -33800 6800 -1000 -1100 48500 -7300 1100 -11800 -34500 -1500 36400 -7400 1100zm39600 -3800l-1500 -47800 6800 -200 1500 47800 -6800 200zm21000 200l2100 -39700 -10000 -600 400 -8000 26900 1400 -400 8100 -10000 -600 -2100 39700 -6900 -300zm21300 900l8000 -47100 6700 1100 -3100 18600 13200 2200 3100 -18600 6800 1200 -8000 47100 -6700 -1100 3400 -20600 -13200 -2200 -3400 20600 -6800 -1200zm74100 17200l-7100 -2100 300 -11300 -13000 -3900 -5800 9600 -7000 -2000 26300 -42100 7000 2100 -700 49700zm-6600 -21800l600 -18300 -9500 15700 8900 2600zm20500 27800l19900 -43500 10000 4500c3700,1800 6100,3100 7100,4100 1400,1400 2300,3500 2400,6300 200,2700 -500,5800 -2000,9300 -1300,2600 -2600,4700 -4200,6200 -1500,1500 -3000,2600 -4500,3100 -1600,600 -3000,800 -4200,600 -1700,-300 -3900,-1000 -6700,-2300l-4100 -1900 -7500 16400 -6200 -2800zm22800 -33300l-5700 12400 3400 1500c2400,1200 4200,1700 5200,1600 1000,-100 2000,-500 2900,-1300 900,-700 1700,-1700 2300,-3000 700,-1600 1000,-3100 800,-4400 -200,-1400 -700,-2400 -1600,-3100 -700,-500 -2100,-1300 -4300,-2300l-3000 -1400zm30400 6000l5800 3600 -13400 22200c-2100,3500 -3400,5800 -3900,6900 -800,1900 -1000,3600 -700,5200 400,1500 1300,2800 2900,3800 1700,1000 3200,1300 4600,800 1500,-400 2700,-1300 3700,-2600 1000,-1300 2500,-3600 4500,-6800l13600 -22700 5900 3600 -13000 21500c-3000,4900 -5200,8300 -6800,10100 -1500,1900 -3100,3200 -4800,4100 -1700,900 -3500,1300 -5400,1300 -2000,0 -4100,-700 -6400,-2100 -2700,-1700 -4500,-3400 -5400,-5100 -900,-1800 -1300,-3700 -1300,-5600 100,-2000 400,-3800 1100,-5600 1100,-2500 3000,-6100 5700,-10700l13300 -21900zm4200 59100l29100 -38000 11400 8700c2900,2200 4800,4200 5500,5800 800,1700 900,3700 400,6100 -500,2300 -1700,4600 -3400,6900 -2200,2800 -4600,4700 -7200,5700 -2600,900 -5200,800 -8000,-600 500,1900 600,3700 500,5400 -100,1800 -700,4600 -1600,8600l-2400 9900 -6500 -5000 2400 -11200c900,-4100 1300,-6600 1400,-7800 100,-1200 -100,-2100 -400,-2800 -400,-800 -1200,-1600 -2500,-2600l-1100 -800 -12100 15900 -5500 -4200zm22200 -17800l4100 3100c2600,2000 4300,3100 5200,3300 900,200 1800,0 2800,-500 900,-500 1800,-1300 2700,-2400 1000,-1300 1500,-2500 1700,-3700 100,-1100 -200,-2200 -900,-3000 -400,-500 -1700,-1500 -3900,-3200l-4300 -3200 -7400 9600zm4600 39100l32600 -35100 8000 7500c3100,2800 4900,4900 5500,6100 900,1800 1100,4100 400,6700 -700,2700 -2300,5400 -4900,8200 -2000,2100 -4000,3700 -5900,4600 -1900,1000 -3700,1500 -5300,1500 -1600,100 -3000,-200 -4200,-700 -1500,-800 -3300,-2200 -5600,-4300l-3300 -3100 -12300 13200 -5000 -4600zm32100 -24500l-9300 10000 2800 2600c1900,1800 3400,2800 4400,3100 1000,200 2100,100 3200,-300 1100,-400 2100,-1200 3100,-2200 1200,-1300 1900,-2600 2200,-3900 200,-1300 0,-2500 -600,-3500 -500,-700 -1600,-1800 -3400,-3500l-2400 -2300zm8400 30300c3800,-3100 7300,-5200 10500,-6500 2400,-900 4800,-1500 7100,-1700 2400,-200 4400,100 6100,700 2300,900 4400,2400 6100,4500 3100,3900 3900,8400 2400,13500 -1500,5100 -5300,10100 -11400,15000 -6000,4800 -11700,7500 -16900,7900 -5300,400 -9500,-1300 -12600,-5200 -3200,-3900 -4000,-8400 -2500,-13400 1500,-5100 5200,-10000 11200,-14800zm4700 5300c-4300,3400 -6900,6700 -8000,9800 -1000,3100 -700,5800 1000,7900 1700,2100 4200,3000 7500,2600 3200,-300 7000,-2300 11400,-5800 4200,-3400 6900,-6600 7900,-9700 1100,-3000 700,-5600 -1100,-7800 -1800,-2200 -4300,-3100 -7500,-2800 -3200,400 -6900,2300 -11200,5800zm12400 29400l4500 5000c-2400,2100 -3800,4100 -4400,5900 -500,1900 -200,3600 1000,5400 1200,1800 2600,2800 4300,3000 1800,200 3400,-200 4800,-1200 1000,-600 1600,-1300 2000,-2200 400,-800 500,-1900 400,-3200 -100,-800 -600,-2700 -1300,-5700 -1000,-3700 -1100,-6700 -400,-9000 1100,-3200 3100,-5800 6300,-8000 2000,-1300 4200,-2200 6500,-2600 2300,-400 4400,-100 6400,800 1900,900 3600,2400 5100,4600 2400,3500 3000,6900 2000,10200 -1000,3200 -3300,6100 -6900,8700l-4100 -5500c1800,-1600 3000,-3100 3300,-4500 400,-1400 100,-2900 -1000,-4500 -1100,-1600 -2500,-2600 -4000,-2900 -1100,-200 -2100,100 -3100,800 -1000,600 -1600,1500 -1900,2500 -300,1300 -100,3600 900,7000 900,3300 1300,6000 1200,8000 -100,2000 -700,3900 -1900,5800 -1200,1900 -3100,3700 -5600,5400 -2300,1500 -4700,2500 -7300,2900 -2600,500 -4900,200 -7000,-800 -2100,-1000 -3900,-2700 -5500,-5100 -2400,-3600 -3100,-7100 -2100,-10600 1000,-3400 3700,-6800 7800,-10200zm5000 36900l42000 -23000 12000 22000 -7000 3900 -8800 -16000 -9300 5100 8100 14900 -7100 3800 -8100 -14800 -11400 6200 9100 16600 -7100 3900 -12400 -22600z"/>
  <path class="fil7" d="M1270400 398000c0,25400 -600,43400 -1800,53900 -1100,10600 -4900,20300 -11200,29000 -6300,8800 -14800,15500 -25500,20200 -10700,4700 -23200,7000 -37400,7000 -13500,0 -25600,-2200 -36400,-6700 -10800,-4400 -19500,-11000 -26000,-19800 -6500,-8900 -10400,-18500 -11700,-28900 -1200,-10500 -1900,-28700 -1900,-54700l0 -43300c0,-25400 600,-43400 1900,-53900 1100,-10600 4900,-20300 11200,-29000 6200,-8800 14800,-15500 25500,-20200 10700,-4700 23200,-7000 37400,-7000 13500,0 25600,2200 36400,6700 10800,4400 19400,11000 25900,19800 6600,8900 10500,18500 11800,28900 1200,10500 1800,28700 1800,54700l0 43300zm-65800 -83100c0,-11700 -700,-19200 -2000,-22600 -1200,-3200 -3800,-4900 -7800,-4900 -3400,0 -5900,1400 -7700,4100 -1800,2600 -2700,10400 -2700,23400l0 118000c0,14700 600,23800 1800,27200 1100,3400 3900,5100 8100,5100 4400,0 7200,-1900 8400,-5900 1300,-3900 1900,-13300 1900,-28200l0 -116200z"/>
  <polygon id="1" class="fil7" points="1441900,249700 1441900,502700 1384400,502700 1350200,387600 1350200,502700 1295200,502700 1295200,249700 1350200,249700 1386900,363600 1386900,249700 "/>
  <polygon id="2" class="fil7" points="1534200,249700 1534200,452100 1573800,452100 1573800,502700 1468300,502700 1468300,249700 "/>
  <polygon id="3" class="fil7" points="1655800,249700 1655800,502700 1589900,502700 1589900,249700 "/>
  <polygon id="4" class="fil7" points="1828900,249700 1828900,502700 1771300,502700 1737100,387600 1737100,502700 1682100,502700 1682100,249700 1737100,249700 1773900,363600 1773900,249700 "/>
  <polygon id="5" class="fil7" points="1855300,249700 1964900,249700 1964900,300200 1921100,300200 1921100,348500 1962100,348500 1962100,396500 1921100,396500 1921100,452100 1969400,452100 1969400,502700 1855300,502700 "/>
  <path id="6" class="fil7" d="M2044500 249700l66300 0c17900,0 31600,1400 41300,4200 9500,2900 16800,6900 21600,12200 4900,5300 8100,11800 9900,19300 1700,7500 2600,19200 2600,35000l0 22100c0,16100 -1700,27800 -5000,35200 -3300,7400 -9500,13100 -18300,17000 -8900,4000 -20500,5900 -34900,5900l-17600 0 0 102100 -65900 0 0 -253000zm65900 43200l0 64400c1800,100 3400,200 4800,200 6000,0 10200,-1500 12500,-4500 2300,-2900 3500,-9100 3500,-18500l0 -20800c0,-8700 -1400,-14300 -4100,-16900 -2600,-2600 -8200,-3900 -16700,-3900z"/>
  <path id="7" class="fil7" d="M2355000 398000c0,25400 -600,43400 -1800,53900 -1200,10600 -4900,20300 -11200,29000 -6300,8800 -14800,15500 -25500,20200 -10700,4700 -23200,7000 -37400,7000 -13600,0 -25700,-2200 -36400,-6700 -10800,-4400 -19500,-11000 -26000,-19800 -6600,-8900 -10400,-18500 -11700,-28900 -1200,-10500 -1900,-28700 -1900,-54700l0 -43300c0,-25400 600,-43400 1800,-53900 1200,-10600 4900,-20300 11200,-29000 6300,-8800 14800,-15500 25500,-20200 10800,-4700 23200,-7000 37500,-7000 13500,0 25600,2200 36400,6700 10700,4400 19400,11000 25900,19800 6600,8900 10500,18500 11700,28900 1300,10500 1900,28700 1900,54700l0 43300zm-65900 -83100c0,-11700 -600,-19200 -1900,-22600 -1300,-3200 -3900,-4900 -7800,-4900 -3400,0 -5900,1400 -7800,4100 -1700,2600 -2600,10400 -2600,23400l0 118000c0,14700 600,23800 1700,27200 1200,3400 3900,5100 8200,5100 4400,0 7200,-1900 8400,-5900 1200,-3900 1800,-13300 1800,-28200l0 -116200z"/>
  <path id="8" class="fil7" d="M2379700 249700l46600 0c31000,0 52000,1200 63000,3600 10900,2400 19900,8500 26800,18400 6900,9800 10400,25500 10400,47000 0,19700 -2500,32900 -7400,39700 -4800,6800 -14400,10800 -28800,12100 13000,3300 21800,7600 26200,13000 4500,5400 7300,10400 8400,15000 1100,4500 1600,17000 1600,37400l0 66800 -61100 0 0 -84200c0,-13500 -1000,-21900 -3200,-25200 -2100,-3200 -7600,-4800 -16600,-4800l0 114200 -65900 0 0 -253000zm65900 43200l0 56300c7400,0 12500,-1000 15400,-3100 2900,-2000 4400,-8600 4400,-19700l0 -14000c0,-8000 -1400,-13300 -4200,-15800 -2900,-2500 -8100,-3700 -15600,-3700z"/>
  <polygon id="9" class="fil7" points="2684300,249700 2684300,300200 2645600,300200 2645600,502700 2579700,502700 2579700,300200 2540700,300200 2540700,249700 "/>
  <path id="10" class="fil7" d="M2800000 249700l37600 253000 -67200 0 -3600 -45500 -23700 0 -3600 45500 -68000 0 33300 -253000 95200 0zm-34900 162800c-3200,-28700 -6500,-64200 -10000,-106600 -6500,48600 -10600,84100 -12400,106600l22400 0z"/>
  <polygon id="11" class="fil7" points="2914800,249700 2914800,452100 2954400,452100 2954400,502700 2848900,502700 2848900,249700 "/>
  <rect class="fil8" x="1132300" y="547100" width="1807600" height="18600" rx="692400" ry="715300"/>
 </g>
</svg>
